<?xml version="1.0" encoding="UTF-8" standalone="no"?>
<svg
   xmlns:dc="http://purl.org/dc/elements/1.1/"
   xmlns:cc="http://creativecommons.org/ns#"
   xmlns:rdf="http://www.w3.org/1999/02/22-rdf-syntax-ns#"
   xmlns:svg="http://www.w3.org/2000/svg"
   xmlns="http://www.w3.org/2000/svg"
   xmlns:sodipodi="http://sodipodi.sourceforge.net/DTD/sodipodi-0.dtd"
   xmlns:inkscape="http://www.inkscape.org/namespaces/inkscape"
   width="11.999835"
   height="15.000251"
   viewBox="0 0 11.999835 15.000251"
   version="1.1"
   xml:space="preserve"
   style="clip-rule:evenodd;fill-rule:evenodd;stroke-linecap:round;stroke-linejoin:round"
   id="svg16"
   sodipodi:docname="delete.svg"
   inkscape:version="0.92.4 (5da689c313, 2019-01-14)"><metadata
     id="metadata22"><rdf:RDF><cc:Work
         rdf:about=""><dc:format>image/svg+xml</dc:format><dc:type
           rdf:resource="http://purl.org/dc/dcmitype/StillImage" /></cc:Work></rdf:RDF></metadata><defs
     id="defs20" /><sodipodi:namedview
     pagecolor="#ffffff"
     bordercolor="#666666"
     borderopacity="1"
     objecttolerance="10"
     gridtolerance="10"
     guidetolerance="10"
     inkscape:pageopacity="0"
     inkscape:pageshadow="2"
     inkscape:window-width="1920"
     inkscape:window-height="1001"
     id="namedview18"
     showgrid="false"
     inkscape:zoom="14.75"
     inkscape:cx="6.0024013"
     inkscape:cy="7.1276158"
     inkscape:window-x="-9"
     inkscape:window-y="-9"
     inkscape:window-maximized="1"
     inkscape:current-layer="svg16" /><g
     id="g14"
     transform="scale(1.0041703,0.99142429)"><path
       d="m 11.575,2.815 v 0.53 c -0.003,0.562 -0.44,1.034 -1,1.08 h -9.2 c -0.56,-0.046 -0.997,-0.518 -1,-1.08 v -0.53 c 0,-0.598 0.492,-1.09 1.09,-1.09 h 9 c 0.007,0 0.013,0 0.02,0 0.598,0 1.09,0.492 1.09,1.09 0,0 0,0 0,0 z"
       style="fill:none;fill-rule:nonzero;stroke:#3d414a;stroke-width:0.75px"
       id="path2"
       inkscape:connector-curvature="0" /><path
       d="m 10.595,4.425 v 9.38 c -0.025,0.511 -0.439,0.925 -0.95,0.95 h -7.32 c -0.53,10e-4 -0.973,-0.42 -1,-0.95 v -9.38 z"
       style="fill:none;fill-rule:nonzero;stroke:#3d414a;stroke-width:0.75px"
       id="path4"
       inkscape:connector-curvature="0" /><path
       d="m 7.595,1.725 v -0.53 c 0,-0.45 -0.37,-0.82 -0.82,-0.82 h -1.58 c -0.45,0 -0.82,0.37 -0.82,0.82 v 0.52"
       style="fill:none;fill-rule:nonzero;stroke:#3d414a;stroke-width:0.75px"
       id="path6"
       inkscape:connector-curvature="0" /><path
       d="m 3.735,5.565 v 8.05"
       style="fill:none;fill-rule:nonzero;stroke:#3d414a;stroke-width:0.75px"
       id="path8"
       inkscape:connector-curvature="0" /><path
       d="m 6.045,5.565 v 8.05"
       style="fill:none;fill-rule:nonzero;stroke:#3d414a;stroke-width:0.75px"
       id="path10"
       inkscape:connector-curvature="0" /><path
       d="m 8.225,5.565 v 8.05"
       style="fill:none;fill-rule:nonzero;stroke:#3d414a;stroke-width:0.75px"
       id="path12"
       inkscape:connector-curvature="0" /></g></svg>