<?xml version="1.0" encoding="UTF-8" standalone="no"?>
<svg
   xmlns:dc="http://purl.org/dc/elements/1.1/"
   xmlns:cc="http://creativecommons.org/ns#"
   xmlns:rdf="http://www.w3.org/1999/02/22-rdf-syntax-ns#"
   xmlns:svg="http://www.w3.org/2000/svg"
   xmlns="http://www.w3.org/2000/svg"
   xmlns:sodipodi="http://sodipodi.sourceforge.net/DTD/sodipodi-0.dtd"
   xmlns:inkscape="http://www.inkscape.org/namespaces/inkscape"
   width="15"
   height="15"
   viewBox="0 0 15 15"
   version="1.1"
   xml:space="preserve"
   style="clip-rule:evenodd;fill-rule:evenodd;stroke-linejoin:round;stroke-miterlimit:2"
   id="svg16"
   sodipodi:docname="reports-worker.svg"
   inkscape:version="0.92.4 (5da689c313, 2019-01-14)"><metadata
     id="metadata22"><rdf:RDF><cc:Work
         rdf:about=""><dc:format>image/svg+xml</dc:format><dc:type
           rdf:resource="http://purl.org/dc/dcmitype/StillImage" /></cc:Work></rdf:RDF></metadata><defs
     id="defs20" /><sodipodi:namedview
     pagecolor="#ffffff"
     bordercolor="#666666"
     borderopacity="1"
     objecttolerance="10"
     gridtolerance="10"
     guidetolerance="10"
     inkscape:pageopacity="0"
     inkscape:pageshadow="2"
     inkscape:window-width="1920"
     inkscape:window-height="1001"
     id="namedview18"
     showgrid="false"
     inkscape:zoom="16.857143"
     inkscape:cx="7"
     inkscape:cy="6.6000003"
     inkscape:window-x="-9"
     inkscape:window-y="-9"
     inkscape:window-maximized="1"
     inkscape:current-layer="svg16" /><clipPath
     id="_clip1"><path
       d="m 2.7,0 h 8.2 c 1.5,0 2.7,1.2 2.7,2.7 v 8.2 c 0,1.5 -1.2,2.7 -2.7,2.7 H 2.7 C 1.2,13.6 0,12.4 0,10.9 V 2.7 C 0,1.2 1.2,0 2.7,0 Z"
       id="path2"
       inkscape:connector-curvature="0" /></clipPath><g
     clip-path="url(#_clip1)"
     id="g7"
     transform="scale(1.1029412)"><rect
       x="-4.5"
       y="-4.5999999"
       width="22.700001"
       height="22.700001"
       style="fill:#d6dae2"
       id="rect5" /></g><clipPath
     id="_clip2"><path
       d="M 11.1,8.5 C 11.1,8 11,6.8 10.1,5.7 9.4,4.8 8.6,4.3 8.1,4.1 7.9,4.7 7.7,5.3 7.5,5.9 V 3.6 H 6.2 V 5.8 C 5.9,5.2 5.7,4.7 5.4,4.1 5,4.3 4.2,4.8 3.6,5.7 2.7,6.9 2.6,8 2.6,8.5 2.1,8.7 1.8,9.2 1.8,9.9 h 10 c 0,-0.7 -0.3,-1.2 -0.7,-1.4 z"
       id="path9"
       inkscape:connector-curvature="0" /></clipPath><g
     clip-path="url(#_clip2)"
     id="g14"
     transform="translate(0.70000016,0.75000016)"><rect
       x="-2.7"
       y="-0.89999998"
       width="19"
       height="15.4"
       style="fill:#ffffff"
       id="rect12" /></g></svg>