<?xml version="1.0" encoding="UTF-8" standalone="no"?>
<svg
   xmlns:dc="http://purl.org/dc/elements/1.1/"
   xmlns:cc="http://creativecommons.org/ns#"
   xmlns:rdf="http://www.w3.org/1999/02/22-rdf-syntax-ns#"
   xmlns:svg="http://www.w3.org/2000/svg"
   xmlns="http://www.w3.org/2000/svg"
   xmlns:sodipodi="http://sodipodi.sourceforge.net/DTD/sodipodi-0.dtd"
   xmlns:inkscape="http://www.inkscape.org/namespaces/inkscape"
   width="15"
   height="15"
   viewBox="0 0 15 15"
   version="1.1"
   xml:space="preserve"
   style="clip-rule:evenodd;fill-rule:evenodd;stroke-linejoin:round;stroke-miterlimit:2"
   id="svg13"
   sodipodi:docname="reports-project.svg"
   inkscape:version="0.92.4 (5da689c313, 2019-01-14)"><metadata
     id="metadata19"><rdf:RDF><cc:Work
         rdf:about=""><dc:format>image/svg+xml</dc:format><dc:type
           rdf:resource="http://purl.org/dc/dcmitype/StillImage" /></cc:Work></rdf:RDF></metadata><defs
     id="defs17" /><sodipodi:namedview
     pagecolor="#ffffff"
     bordercolor="#666666"
     borderopacity="1"
     objecttolerance="10"
     gridtolerance="10"
     guidetolerance="10"
     inkscape:pageopacity="0"
     inkscape:pageshadow="2"
     inkscape:window-width="1920"
     inkscape:window-height="1001"
     id="namedview15"
     showgrid="false"
     inkscape:zoom="16.857143"
     inkscape:cx="7"
     inkscape:cy="6.6000003"
     inkscape:window-x="-9"
     inkscape:window-y="-9"
     inkscape:window-maximized="1"
     inkscape:current-layer="svg13" /><clipPath
     id="_clip1"><path
       d="m 2.7,0 h 8.2 c 1.5,0 2.7,1.2 2.7,2.7 v 8.2 c 0,1.5 -1.2,2.7 -2.7,2.7 H 2.7 C 1.2,13.6 0,12.4 0,10.9 V 2.7 C 0,1.2 1.2,0 2.7,0 Z"
       id="path2"
       inkscape:connector-curvature="0" /></clipPath><g
     clip-path="url(#_clip1)"
     id="g7"
     transform="scale(1.1029412)"><rect
       x="-4.5"
       y="-4.5999999"
       width="22.700001"
       height="22.700001"
       style="fill:#d6dae2"
       id="rect5" /></g><g
     id="g23"
     transform="translate(0.70000016,1.2000002)"><path
       id="path9"
       style="fill:#ffffff;fill-rule:nonzero"
       d="M 7.9,4.9 V 5 C 7.9,5.7 7.4,6.3 6.8,6.3 6.2,6.3 5.8,5.7 5.8,5 V 4.9 H 3.4 v 5 h 6.8 v -5 z"
       inkscape:connector-curvature="0" /><path
       id="path11"
       style="fill:#ffffff;fill-rule:nonzero"
       d="M 3.4,4.81 C 3.8,4.11 4.2,3.3 4.7,2.7 h 4.4 c 0.4,0.7 0.7,1.4 1.1,2.1"
       inkscape:connector-curvature="0" /></g></svg>