<svg id="Layer_1" data-name="Layer 1" xmlns="http://www.w3.org/2000/svg" viewBox="0 0 1202.42 1016.58"><defs><style>.cls-1{fill:#ee4540;}</style></defs><title>Tracksite_Logo</title><path class="cls-1" d="M228.48,764.35a10.81,10.81,0,0,1-10.78,10.78H202.39v76.12a10.68,10.68,0,1,1-21.35,0V775.13H165.52A10.77,10.77,0,0,1,155,764.35a10.59,10.59,0,0,1,10.57-10.57H181V710.65a10.68,10.68,0,0,1,21.35,0v43.13H217.7A10.63,10.63,0,0,1,228.48,764.35Z"/><path class="cls-1" d="M308.7,764.35a10.81,10.81,0,0,1-10.78,10.78,32.76,32.76,0,0,0-32.78,32.78v43.34a10.68,10.68,0,1,1-21.35,0V807.91a54.16,54.16,0,0,1,54.13-54.13A10.63,10.63,0,0,1,308.7,764.35Z"/><path class="cls-1" d="M431.18,808.55v42.27a10.42,10.42,0,0,1-10.79,10.78c-4.31,0-10.35-4.53-10.35-10.78-9.27,7.76-19.62,10.78-31.91,10.78-30.4,0-54.56-22.64-54.56-53.05A54.21,54.21,0,0,1,378.13,754C408.53,754,431.18,778.15,431.18,808.55Zm-21.14,0c0-18.11-13.8-33.42-31.91-33.42s-33.42,15.31-33.42,33.42,15.31,31.92,33.42,31.92S410,826.67,410,808.55Z"/><path class="cls-1" d="M460.28,807.91A54.11,54.11,0,0,1,561.2,780.74a10.83,10.83,0,0,1-3.88,14.66,11,11,0,0,1-14.66-3.88,32.83,32.83,0,0,0-61.24,16.39,33,33,0,0,0,32.77,32.77,32.55,32.55,0,0,0,27.61-15.09,11,11,0,0,1,14.87-3.24,10.74,10.74,0,0,1,3,14.88,54,54,0,0,1-99.41-29.32Z"/><path class="cls-1" d="M675.71,858.8a10.31,10.31,0,0,1-14.88-1.3l-41-49.16-6.69,4.53V850.6a10.81,10.81,0,0,1-10.78,10.78,10.63,10.63,0,0,1-10.57-10.78V710.87a10.59,10.59,0,0,1,10.57-10.57,10.77,10.77,0,0,1,10.78,10.57v76.77l49-32.13a10.64,10.64,0,1,1,13.59,16.38L638,796.69l39.25,47.23A10.61,10.61,0,0,1,675.71,858.8Z"/><path class="cls-1" d="M769.51,829.47A32.49,32.49,0,0,1,737.16,862c-15.31,0-27.6-11-31.7-23.5-1.94-5.61,2.59-11.43,8.2-12.73,5.82-1.07,9.91,3,12.72,8.41,3,5.61,5.6,6.47,10.78,6.47a11.11,11.11,0,0,0,0-22.21A32.31,32.31,0,0,1,714.3,809a31.42,31.42,0,0,1-9.48-22.85,32.3,32.3,0,0,1,32.34-32.35c15.09,0,28.9,10.35,31.05,22.43,1.08,5.82-2.37,11.64-8.19,12.72-5.82,1.29-10.78-2.59-12.72-8-1.3-3.45-5-5.82-10.14-5.82a11,11,0,1,0,0,22A32.31,32.31,0,0,1,760,806.61,31.82,31.82,0,0,1,769.51,829.47Z"/><path class="cls-1" d="M801.63,729.2a10.68,10.68,0,1,1,15.1-15.1,10.68,10.68,0,0,1-15.1,15.1Zm-3.23,122v-86.9a10.68,10.68,0,0,1,21.35,0v86.9a10.68,10.68,0,1,1-21.35,0Z"/><path class="cls-1" d="M922.6,764.35a10.81,10.81,0,0,1-10.78,10.78H896.51v76.12a10.68,10.68,0,1,1-21.35,0V775.13H859.64a10.77,10.77,0,0,1-10.57-10.78,10.59,10.59,0,0,1,10.57-10.57h15.52V710.65a10.68,10.68,0,0,1,21.35,0v43.13h15.31A10.63,10.63,0,0,1,922.6,764.35Z"/><path class="cls-1" d="M1046.59,807.69a10.63,10.63,0,0,1-10.78,10.57H961.42a32.88,32.88,0,0,0,31.05,22.21,42.28,42.28,0,0,0,24.15-7.12c5-3.23,11.65-.21,14.23,5,2.59,5.39-.21,11-5.17,14.23-14.24,9.49-25.23,9.28-33.21,9.28a54.13,54.13,0,1,1,0-108.25C1018.56,753.57,1046.59,772.54,1046.59,807.69Zm-85.17-10.78h62.32c-4.53-15.1-18.33-22-31.27-22A33,33,0,0,0,961.42,796.91Z"/><path class="cls-1" d="M601.63,163.77c-104,0-172.76,93.67-174.49,174.49-.92,42.89,17.17,76.81,29.59,95.48,1,1.53,1.79,2.65,2.3,3.38C472.52,456.55,503.89,493.59,586,564.2a22.19,22.19,0,0,0,31.36,0c82.07-70.61,113.44-107.65,126.93-127.08.51-.73,1.28-1.85,2.3-3.38,12.42-18.67,30.5-52.59,29.58-95.48C774.39,257.44,705.62,163.77,601.63,163.77Zm17.49,274.32-21.36,32.35h0l-21.36-32.35v-1.53L619.12,424Zm-.51-35.16v10.29h-9.05L560.17,426l15.71-13.26V401.56h11.73l47.74-13.31Zm0-28.79v10.29h-9.05l-49.39,12.76,15.71-13.27V372.77h11.73l47.74-13.31Zm0-30.57v10.28h-9.05l-49.39,12.77,15.71-13.27V342.2h11.73l47.74-13.31ZM701,288.35a18.91,18.91,0,0,1-18.91,18.9h-63v13.64l-42.73,12.56v-26.2h-63a18.9,18.9,0,0,1-18.9-18.9h0a18.9,18.9,0,0,1,18.9-18.91H682.08A18.91,18.91,0,0,1,701,288.35Z"/></svg>