<?xml version="1.0" encoding="UTF-8" standalone="no"?>
<svg
   xmlns:dc="http://purl.org/dc/elements/1.1/"
   xmlns:cc="http://creativecommons.org/ns#"
   xmlns:rdf="http://www.w3.org/1999/02/22-rdf-syntax-ns#"
   xmlns:svg="http://www.w3.org/2000/svg"
   xmlns="http://www.w3.org/2000/svg"
   xmlns:sodipodi="http://sodipodi.sourceforge.net/DTD/sodipodi-0.dtd"
   xmlns:inkscape="http://www.inkscape.org/namespaces/inkscape"
   width="12.000003"
   height="12"
   viewBox="0 0 12.000003 12"
   version="1.1"
   xml:space="preserve"
   style="clip-rule:evenodd;fill-rule:evenodd;stroke-linecap:round;stroke-linejoin:round"
   id="svg4"
   sodipodi:docname="materials.svg"
   inkscape:version="0.92.4 (5da689c313, 2019-01-14)"><metadata
     id="metadata10"><rdf:RDF><cc:Work
         rdf:about=""><dc:format>image/svg+xml</dc:format><dc:type
           rdf:resource="http://purl.org/dc/dcmitype/StillImage" /></cc:Work></rdf:RDF></metadata><defs
     id="defs8" /><sodipodi:namedview
     pagecolor="#ffffff"
     bordercolor="#666666"
     borderopacity="1"
     objecttolerance="10"
     gridtolerance="10"
     guidetolerance="10"
     inkscape:pageopacity="0"
     inkscape:pageshadow="2"
     inkscape:window-width="1920"
     inkscape:window-height="1001"
     id="namedview6"
     showgrid="false"
     inkscape:zoom="18.153846"
     inkscape:cx="6.5"
     inkscape:cy="6.0720001"
     inkscape:window-x="-9"
     inkscape:window-y="-9"
     inkscape:window-maximized="1"
     inkscape:current-layer="svg4" /><path
     d="m 10.023128,9.054653 1.418479,1.412777 c 0.130423,-0.2816 0.198016,-0.587066 0.19992,-0.897305 9.51e-4,-0.0095 9.51e-4,-0.01909 9.51e-4,-0.02864 0,-1.1569494 -0.950095,-2.1096193 -2.103917,-2.1096193 0,0 -9.521e-4,0 -9.521e-4,0 -0.2465677,0 -0.4921834,0.04582 -0.7235191,0.1336411 L 4.4253746,3.1839915 c 0.081872,-0.2300536 0.1237599,-0.4725167 0.1237599,-0.7159344 0,-0.00382 0,-0.00668 0,-0.0105 0,-1.152177 -0.945335,-2.10007404 -2.0943977,-2.10007404 -0.3093997,0 -0.6149914,0.0687297 -0.8948791,0.20141614 l 1.3994385,1.4032314 c 0.1332798,0.1326865 0.2084878,0.313102 0.2084878,0.501154 0,0.1880521 -0.075208,0.3684676 -0.2084878,0.5011541 -0.1313758,0.1336411 -0.3122557,0.2080982 -0.4997995,0.2080982 -0.1875438,0 -0.3674715,-0.074457 -0.4997994,-0.2080982 L 0.55073885,1.5516612 c -0.12756787,0.276828 -0.19325579,0.5784749 -0.19325579,0.8839403 0,1.1569498 0.95009494,2.1096198 2.10391764,2.1096198 0.2475198,0 0.4940875,-0.043911 0.7263752,-0.1298228 L 7.5669711,8.8064624 C 7.4793875,9.0412889 7.4346433,9.290434 7.4346433,9.542443 c 0,1.151223 0.9453349,2.100074 2.0943977,2.100074 0.3093997,0 0.614992,-0.06873 0.893927,-0.201417 L 9.0044896,10.018778 C 8.9349936,9.906137 8.8978657,9.776315 8.8978657,9.643628 c 0,-0.3875589 0.3179677,-0.7063883 0.7044792,-0.7063883 0.1437519,0 0.2836957,0.044865 0.4017431,0.1269591 z"
     style="fill:none;fill-rule:nonzero;stroke:#fff;stroke-width:0.71496612px"
     id="path2"
     inkscape:connector-curvature="0" /></svg>